<?xml version="1.0" encoding="UTF-8" standalone="no"?>
<!-- Created with Inkscape (http://www.inkscape.org/) -->

<svg
   xmlns:dc="http://purl.org/dc/elements/1.1/"
   xmlns:cc="http://creativecommons.org/ns#"
   xmlns:rdf="http://www.w3.org/1999/02/22-rdf-syntax-ns#"
   xmlns:svg="http://www.w3.org/2000/svg"
   xmlns="http://www.w3.org/2000/svg"
   xmlns:xlink="http://www.w3.org/1999/xlink"
   xmlns:sodipodi="http://sodipodi.sourceforge.net/DTD/sodipodi-0.dtd"
   xmlns:inkscape="http://www.inkscape.org/namespaces/inkscape"
   width="307.30984"
   height="102.05156"
   id="svg2"
   version="1.1"
   inkscape:version="0.48.5 r10040"
   sodipodi:docname="New document 1">
  <defs
     id="defs4">
    <linearGradient
       id="linearGradient3766">
      <stop
         id="stop3778"
         offset="0"
         style="stop-color:#ff0000;stop-opacity:0.49803922;" />
      <stop
         style="stop-color:#ff0000;stop-opacity:0.24705882;"
         offset="1"
         id="stop3780" />
    </linearGradient>
    <linearGradient
       inkscape:collect="always"
       xlink:href="#linearGradient3766"
       id="linearGradient3776"
       x1="350.85699"
       y1="591.93707"
       x2="628.16791"
       y2="591.93707"
       gradientUnits="userSpaceOnUse" />
    <linearGradient
       inkscape:collect="always"
       xlink:href="#linearGradient3766"
       id="linearGradient3792"
       gradientUnits="userSpaceOnUse"
       x1="350.85699"
       y1="591.93707"
       x2="628.16791"
       y2="591.93707" />
    <linearGradient
       inkscape:collect="always"
       xlink:href="#linearGradient3766"
       id="linearGradient3795"
       gradientUnits="userSpaceOnUse"
       x1="350.85699"
       y1="591.93707"
       x2="628.16791"
       y2="591.93707" />
    <linearGradient
       inkscape:collect="always"
       xlink:href="#linearGradient3766"
       id="linearGradient3798"
       gradientUnits="userSpaceOnUse"
       x1="350.85699"
       y1="591.93707"
       x2="628.16791"
       y2="591.93707" />
    <linearGradient
       inkscape:collect="always"
       xlink:href="#linearGradient3766"
       id="linearGradient3801"
       gradientUnits="userSpaceOnUse"
       x1="350.85699"
       y1="591.93707"
       x2="628.16791"
       y2="591.93707" />
  </defs>
  <sodipodi:namedview
     id="base"
     pagecolor="#ffffff"
     bordercolor="#666666"
     borderopacity="1.0"
     inkscape:pageopacity="0.0"
     inkscape:pageshadow="2"
     inkscape:zoom="0.52263376"
     inkscape:cx="36.200825"
     inkscape:cy="116.77672"
     inkscape:document-units="px"
     inkscape:current-layer="layer1"
     showgrid="false"
     fit-margin-top="15"
     fit-margin-left="15"
     fit-margin-bottom="15"
     fit-margin-right="15"
     inkscape:window-width="1366"
     inkscape:window-height="715"
     inkscape:window-x="-8"
     inkscape:window-y="-8"
     inkscape:window-maximized="1" />
  <metadata
     id="metadata7">
    <rdf:RDF>
      <cc:Work
         rdf:about="">
        <dc:format>image/svg+xml</dc:format>
        <dc:type
           rdf:resource="http://purl.org/dc/dcmitype/StillImage" />
        <dc:title></dc:title>
      </cc:Work>
    </rdf:RDF>
  </metadata>
  <g
     inkscape:label="Layer 1"
     inkscape:groupmode="layer"
     id="layer1"
     transform="translate(-335.84642,-540.90625)">
    <path
       style="fill:#000000;fill-opacity:1"
       d="m 604.15625,555.90625 c -1.72867,0 -8.437,7.24045 -12.96875,14 -2.39676,3.575 -5.17628,7.72852 -6.1875,9.21875 -1.01122,1.49023 -1.84375,2.961 -1.84375,3.25 0,0.28901 -1.41447,2.88548 -3.15625,5.78125 -4.87721,8.10851 -15.89329,18.12871 -24.71875,22.46875 -4.14517,2.03844 -4.69361,2.069 -8,0.6875 -2.52202,-1.05376 -5.12715,-1.29248 -8.96875,-0.8125 -5.34087,0.6673 -5.40443,0.63968 -4.8125,-1.71875 1.27466,-5.07864 -0.53653,-5.23623 -9.4375,-0.84375 -7.08093,3.49431 -16.02392,6.98565 -17.90625,6.96875 -0.275,-0.002 -1.175,-0.45438 -2,-1 -1.27414,-0.84267 -1.13755,-1.29108 0.90625,-2.875 2.78633,-2.15936 2.28019,-5.125 -0.875,-5.125 -1.11726,0 -2.03125,0.36355 -2.03125,0.78125 0,1.27913 -4.20518,3.47516 -9.15625,4.78125 -5.8256,1.53676 -8.55948,0.0761 -9.03125,-4.8125 -0.26171,-2.71188 -0.6775,-3.19961 -2.5625,-2.9375 -1.2375,0.17207 -2.25,-0.0969 -2.25,-0.625 0,-1.33699 5.8404,-12.93046 6.8125,-13.53125 0.43705,-0.27011 2.73995,-0.72599 5.125,-1 2.96827,-0.34101 5.15644,-1.09838 5.6875,-1.71875 0.0669,-0.0782 0.44715,-0.2169 0.875,-0.34375 0.3865,0.14144 0.84465,0.27869 1.09375,0.4375 0.73186,0.46684 2.51751,0.73797 3.25,0.46875 0.73248,-0.26923 2.04748,-0.5 2.9375,-0.5 1.09212,0 1.30833,-0.31667 0.625,-1 -0.56133,-0.56133 -2.43532,-0.42535 -4.28125,-0.34375 -2.14675,0.0949 -3.24365,0.19014 -3.8125,0.3125 -1.02562,0.012 -2.23043,0.0487 -2.84375,0.0312 -1.62187,-0.0461 -3.64375,-0.44395 -4.46875,-0.96875 -1.27705,-0.81235 -1.30052,-1.27965 -0.15625,-3.125 3.77751,-6.09198 4.89286,-8.70244 4.1875,-9.84375 -1.48736,-2.40659 -7.12203,2.08743 -12.34375,9.84375 -2.23587,3.32116 -2.48893,3.40594 -10.25,3.75 -4.3675,0.19362 -9.85,0.63606 -12.1875,0.96875 -4.95974,0.70591 -5.18714,0.0649 -1.75,-5 3.32894,-4.90553 3.321,-8.18295 -0.0312,-5.84375 -1.88219,1.31339 -6.4677,7.86909 -6.5,9.3125 -0.0356,1.59335 -4.11167,4.86297 -6.71875,5.375 -4.37149,0.85856 -14.94823,3.70021 -16.75,4.5 -1.1,0.48828 -3.2375,1.17173 -4.75,1.5 -2.87765,0.62455 -3.81904,2.53125 -1.25,2.53125 0.81711,0 3.40461,-0.43798 5.75,-1 2.34539,-0.56202 6.82082,-1.6262 9.9375,-2.375 3.62274,-0.87039 6.0109,-1.02035 6.625,-0.40625 1.0292,1.0292 0.0433,6.99125 -1.5,9.0625 -0.50064,0.67191 -0.88,2.79375 -0.8125,4.71875 0.0675,1.925 -0.25161,4.02471 -0.71875,4.65625 -1.93007,2.60928 0.96611,9.34332 4.9375,11.46875 1.98217,1.06082 2.75696,0.92879 5.28125,-0.9375 1.61949,-1.19734 3.17815,-2.1875 3.46875,-2.1875 0.2906,0 2.21208,-1.85605 4.28125,-4.15625 2.06916,-2.30021 5.2125,-5.6174 7,-7.34375 1.7875,-1.72634 3.25,-3.4463 3.25,-3.84375 0,-0.39745 1.125,-1.95462 2.5,-3.4375 1.375,-1.48287 2.5,-3.24438 2.5,-3.9375 0,-0.69312 0.45,-1.28125 1,-1.28125 1.49579,0 1.22156,1.64538 -1,6 -1.1,2.15618 -2,4.58694 -2,5.375 0,1.72579 2.69857,2.94105 3.53125,1.59375 0.86914,-1.4063 2.48293,-1.17797 1.96875,0.28125 -0.66806,1.89592 1.96554,4.79291 5.15625,5.65625 1.72275,0.46615 4.97122,0.21766 8.21875,-0.625 5.03606,-1.30673 5.44369,-1.2579 6.71875,0.5625 0.74685,1.06628 2.53794,2.16398 3.96875,2.4375 3.49664,0.66842 10.46772,-1.19478 12.875,-3.4375 1.0734,-1.00002 2.52871,-1.84375 3.25,-1.84375 0.72129,0 1.3125,-0.38912 1.3125,-0.875 0,-0.48589 1.0125,-1.11154 2.25,-1.40625 1.2375,-0.29471 3.26207,-0.84325 4.46875,-1.21875 1.83787,-0.5719 2.41276,-0.10108 3.65625,2.875 1.55008,3.70988 2.33489,3.79623 8.71875,1.1875 0.90589,-0.37019 2.14411,0.0256 2.875,0.90625 1.99756,2.40691 8.32635,1.90876 13.75,-1.09375 6.32628,-3.5022 12.58885,-7.81734 14.21875,-9.78125 3.98633,-4.80328 4.01246,0.77061 0.0625,11.59375 -1.65,4.52111 -3,9.03653 -3,10.03125 0,3.55638 2.70956,1.69026 5.0625,-3.46875 1.31694,-2.8875 3.43543,-6.64184 4.6875,-8.34375 1.25208,-1.70192 2.25,-4.06442 2.25,-5.25 0,-1.18559 0.41892,-2.15625 0.90625,-2.15625 0.48733,0 1.5872,-1.51726 2.46875,-3.375 1.72715,-3.63969 4.88145,-6.14597 9.03125,-7.1875 3.12972,-0.78551 3.30444,0.39766 0.59375,3.84375 -3.75461,4.77321 -2.35766,5.77543 6.84375,5 6.88713,-0.58041 7.7682,0.41872 4.3125,4.84375 -3.17585,4.06669 -3.46054,6.40411 -0.90625,7.5625 5.17255,2.3458 8.76387,3.16439 9.40625,2.125 0.3897,-0.63054 2.80015,-0.81513 6.15625,-0.46875 5.4302,0.56045 11.1875,-1.11728 11.1875,-3.25 0,-0.48115 -4.0107,-1.02653 -8.9375,-1.21875 -7.45647,-0.29092 -9.19753,-0.66998 -10.375,-2.28125 -1.23924,-1.6958 -1.19955,-2.31547 0.4375,-5 3.65217,-5.98906 1.23788,-9.78846 -4.78125,-7.5 -3.48191,1.32382 -7.34775,1.1299 -7.34375,-0.34375 0.002,-0.6875 0.9316,-2.73878 2.0625,-4.59375 4.22923,-6.9371 -0.38929,-8.10099 -10.53125,-2.625 -3.58879,1.93772 -6.53125,3.30223 -6.53125,3.03125 0,-0.27099 0.99765,-2.20202 2.1875,-4.28125 1.18985,-2.07923 2.82247,-5.08928 3.65625,-6.71875 0.83379,-1.62947 3.01739,-4.45489 4.84375,-6.28125 1.82637,-1.82637 3.3125,-3.7699 3.3125,-4.3125 0,-1.38244 4.91108,-9.09674 7.15625,-11.25 1.95783,-1.87768 2.55916,-6.71875 0.84375,-6.71875 z m -215.84375,6.4375 c -2.16889,0.11552 -5.73582,1.05361 -10.65625,2.78125 -15.17967,5.32982 -16.45596,6.50207 -12.5,11.53125 1.1,1.39842 2,3.0957 2,3.78125 0,1.14356 6.12649,6.46875 7.4375,6.46875 0.3117,0 0.5625,-1.125 0.5625,-2.5 0,-1.375 -0.32507,-2.5 -0.75,-2.5 -0.42492,0 -1.63835,-1.5831 -2.6875,-3.53125 -1.87909,-3.48926 -1.8701,-3.55073 0.0312,-5.375 2.16342,-2.07571 10.9684,-4.83902 13.65625,-4.28125 0.9625,0.19974 1.75,0.94725 1.75,1.6875 0,1.74262 -2.84379,13.40403 -3.90625,16 -2.9126,7.11659 -6.17326,14.03384 -10.09375,21.46875 -5.76548,10.93382 -7.05501,11.25686 -12.96875,3.09375 -4.33132,-5.97877 -6.76354,-7.29416 -8.875,-4.75 -0.80412,0.9689 -0.58927,2.21023 0.8125,4.75 1.04374,1.89106 2.65613,4.7875 3.5625,6.4375 0.90636,1.65 3.06871,3.76366 4.8125,4.6875 4.33113,2.29459 4.91307,2.21621 7.8125,-0.9375 4.42195,-4.80977 8.5277,-11.75264 12.3125,-20.875 2.02204,-4.87365 4.11216,-9.63871 4.625,-10.59375 0.51284,-0.95504 0.90625,-2.41754 0.90625,-3.25 0,-0.83246 0.3764,-1.53125 0.8125,-1.53125 2.56629,0 5.75846,-18.6565 3.75,-21.90625 -0.31539,-0.51031 -1.10491,-0.72556 -2.40625,-0.65625 z m 148.53125,4.09375 c -0.4595,-0.0434 -1.13034,0.18881 -2.15625,0.65625 -2.5827,1.17676 -3.03206,1.96795 -1.84375,3.15625 1.03118,1.03119 4.12149,0.79364 4.84375,-0.375 0.35616,-0.57633 0.39894,-1.70468 0.0937,-2.5 -0.22468,-0.58551 -0.478,-0.89412 -0.9375,-0.9375 z M 474.75,589 c 0.66646,-0.0197 1.12371,-0.0213 1.28125,0.0312 1.73463,0.57821 -10.04159,17.39867 -17.59375,25.125 -7.27655,7.44436 -11.28125,8.92801 -11.28125,4.1875 0,-1.41116 -0.47434,-3.4635 -1.0625,-4.5625 -0.68969,-1.28869 -0.71354,-2.42257 -0.0937,-3.1875 0.52855,-0.65235 1.49021,-3.8875 2.15625,-7.1875 0.66604,-3.3 2.25019,-7.39212 3.53125,-9.09375 2.19631,-2.91735 2.94897,-3.16196 12.78125,-4.375 4.30124,-0.53066 8.28186,-0.87848 10.28125,-0.9375 z"
       id="path3790"
       inkscape:connector-curvature="0" />
  </g>
</svg>
