<?xml version="1.0" encoding="UTF-8"?><svg id="Layer_1" xmlns="http://www.w3.org/2000/svg" viewBox="0 0 135.16 35.3"><path d="m59.6,21.08c-.37.43-.73.87-1.1,1.3-2.55,2.96-5.34,5.67-8.41,8.09-.72.57-1.52,1.02-2.42,1.27-.76.2-1.47.08-2.11-.34-1.37-.89-2.18-2.14-2.22-3.81-.05-2.53.23-5.03,1.05-7.44.39-1.15.83-2.29,1.24-3.44.05-.14.09-.29.14-.45-2.79.58-5.53,1.15-8.17,2.09-1.05.37-2.07.23-3.1.04-.29-.05-.59-.12-.87-.24-.13-.06-.28-.24-.29-.37,0-.12.16-.3.29-.35.79-.3,1.59-.61,2.41-.85,2.08-.63,4.16-1.28,6.26-1.84,1.41-.38,2.86-.64,4.3-.94.31-.06.49-.22.67-.48,1.19-1.71,2.37-3.43,3.62-5.1.34-.45.88-.78,1.38-1.07.55-.32,1.08-.23,1.42.13.36.38.41.89.05,1.45-.81,1.24-1.65,2.46-2.48,3.69-.11.17-.22.34-.39.59.26,0,.42.01.58,0,2.35-.21,4.7-.45,7.05-.64,1.25-.1,2.52-.1,3.77-.17.17-.01.37-.16.49-.3,1.39-1.71,2.75-3.44,4.17-5.13.54-.64,1.2-1.17,1.84-1.71.32-.27.73-.5,1.16-.27.46.24.47.74.45,1.19-.08,1.37-.5,2.65-1.23,3.81-.51.81-1.01,1.62-1.56,2.48.22.04.4.08.59.09,1.82.14,3.64.25,5.45.41.6.05,1.19.17,1.78.3.22.05.44.18.6.34.26.25.18.46-.17.5-.42.05-.84.07-1.26.08-1.74.04-3.49.07-5.23.11-.85.02-1.7.06-2.56.09-.31.01-.53.11-.7.41-.92,1.68-1.87,3.34-2.79,5.01-.18.32-.29.67-.41,1.02-.11.33,0,.57.36.65.27.06.54.12.81.13.35.02.59.19.66.51.08.37.1.75.12,1.12.02.36,0,.73.02,1.09.03.33.24.53.58.5.48-.04.77.16.9.62.11.39.41.49.74.38.76-.25,1.51-.52,2.24-.83,1.73-.73,3.47-1.42,5.31-1.82.72-.16,1.19.25,1.2.99.02.77-.22,1.44-.71,2.03-.25.31-.47.65-.8,1.1.33.04.56.13.75.09,1.05-.26,2.12-.49,3.14-.84,2.59-.91,5-2.22,7.46-3.42.71-.35,1.48-.6,2.25-.78.72-.18,1.06.13,1.13.87.05.55.07,1.1.14,1.65.09.66.53.99,1.2.86.47-.09.94-.24,1.38-.43.63-.28,1.25-.28,1.87,0,.51.23,1.03.48,1.5.79,1.17.76,2.36.73,3.6.2,1.4-.6,2.62-1.5,3.83-2.38,1.54-1.12,3.18-2.12,4.44-3.57,1.03-1.19,2.05-2.4,2.93-3.69,1.54-2.25,2.99-4.56,4.45-6.86,1.69-2.64,3.31-5.32,5.36-7.71.64-.74,1.33-1.41,2.35-1.63.62-.13,1.14.03,1.58.46.31.3.27.71.12,1.03-.36.81-.7,1.65-1.21,2.37-1.38,1.94-2.86,3.82-4.28,5.73-1.17,1.57-2.37,3.11-3.46,4.73-.53.79-.85,1.73-1.26,2.61-.06.13-.06.28-.07.42-.01.25.1.41.37.39.26-.02.53-.03.76-.13,1.3-.57,2.57-1.18,3.88-1.73.52-.22,1.1-.37,1.66-.41,1.15-.09,1.56.77,1.5,1.66-.05.7-.32,1.31-.82,1.83-.23.23-.42.51-.57.79-.41.75-.13,1.35.74,1.42.67.06,1.37.04,2.04-.04.82-.1,1.62-.13,2.42.06.97.23,1.62.92,1.59,1.74-.02.61-.37,1.04-.81,1.42-.36.32-.71.66-1.04,1.01-.15.16-.27.35-.38.55-.48.83-.37,1.1.45,1.6,1.69,1.04,3.56,1.18,5.46,1.1,1.27-.05,2.54-.14,3.81-.19.55-.02.71.23.45.71-.64,1.18-1.55,2-2.98,1.97-.99-.03-1.98-.2-2.98-.23-1.16-.03-2.33,0-3.49.05-1.09.05-2.17.13-3.25-.13-1.31-.32-2.2-1.59-2-2.92.04-.27.15-.57.31-.79.36-.48.78-.92,1.15-1.39.26-.33.51-.67.7-1.04.21-.4.09-.58-.36-.56-.68.02-1.36.11-2.04.16-1.19.08-2.38.16-3.57.24-.05,0-.1,0-.16-.01-.99-.13-1.41-.69-1.11-1.65.18-.59.54-1.12.84-1.68.12-.22.3-.4.41-.62.07-.14.08-.31.11-.47-.17-.02-.38-.1-.51-.04-.54.26-1.12.49-1.56.87-1.11.94-1.95,2.12-2.76,3.31-1.96,2.88-3.63,5.92-5.16,9.04-.26.53-.61,1.04-1.01,1.49-.46.53-1,.42-1.32-.2-.44-.85-.36-1.76-.24-2.66.18-1.35.82-2.53,1.38-3.74.51-1.1.99-2.22,1.41-3.36.16-.43.12-.93.15-1.4,0-.11-.05-.22-.08-.33-.12.04-.25.05-.35.12-1.08.78-2.15,1.6-3.25,2.36-1.52,1.06-3.02,2.15-4.78,2.78-1.53.55-3.11.7-4.73.6-.44-.03-.8-.21-1.06-.58-.56-.78-1.31-.96-2.16-.46-.87.52-1.79.69-2.79.59-.99-.11-1.33-.44-1.42-1.43,0-.08,0-.16-.01-.24-.21-1.32-.74-1.76-2.1-1.19-2,.83-3.92,1.88-5.86,2.85-1.22.61-2.49,1.04-3.85,1.15-1.12.09-2.17-.1-3.1-.76-.37-.26-.61-.58-.51-1.06.06-.31-.08-.42-.37-.47-.7-.11-1.37-.02-1.99.29-1,.49-2.06.74-3.15.79-1.63.08-3.01-.47-3.91-2.25-.35-.69-.73-.96-1.46-.94-1.52.05-1.88-1.13-1.45-2.16.25-.59.55-1.16.83-1.73.07-.14.14-.27.21-.4-.03-.02-.05-.03-.08-.05Zm1.19-6.38s-.06-.1-.08-.15c-.12,0-.25-.02-.37-.01-1.07.08-2.14.16-3.21.27-2.35.24-4.69.5-7.04.73-.44.04-.74.19-.88.63-.09.28-.25.55-.39.81-1.52,2.88-1.88,5.97-1.62,9.16.05.65.17,1.3.36,1.92.27.88.94,1.1,1.67.55.5-.38.96-.82,1.38-1.28.64-.71,1.25-1.45,1.85-2.19,2.79-3.48,5.56-6.96,8.34-10.44Z"/><path d="m16.51,3.55c-1.64.01-3.23.31-4.76.9-.15.06-.29.12-.43.2-.94.52-1.21,1.46-.63,2.38.25.39.56.77.91,1.07.85.72.98,1.69,1.03,2.7,0,.19-.03.39-.04.59-.05.79-.56,1.11-1.3.83-.73-.28-1.33-.74-1.82-1.33-.88-1.06-1.53-2.25-2.09-3.5-.34-.74-.74-1.45-1.01-2.21-.39-1.09-.13-1.75.92-2.26.72-.36,1.5-.64,2.27-.86,1.18-.34,2.39-.59,3.58-.89,1.39-.34,2.77-.7,4.15-1.05.23-.06.46-.09.7-.11,1.51-.13,2.47.64,2.7,2.16.2,1.3,0,2.57-.31,3.82-.88,3.58-2.3,6.96-3.92,10.26-1.26,2.57-2.53,5.13-4.11,7.51-1.15,1.75-2.41,3.43-3.68,5.1-.73.96-1.2,1.03-2.29.54-1.25-.56-2.29-1.42-3.27-2.36-.8-.77-1.66-1.49-2.21-2.49-.41-.75-.75-1.52-.88-2.38-.12-.82.2-1.68.79-2.05.29-.19.57-.21.89-.08.73.29,1.25.83,1.7,1.42.82,1.07,1.58,2.19,2.38,3.28.17.23.38.43.6.62.66.56,1.27.58,1.89-.03.54-.53,1.04-1.11,1.48-1.73,2-2.81,3.53-5.88,4.83-9.07.96-2.36,1.75-4.77,2.37-7.24.28-1.1.46-2.23.7-3.35.06-.28-.04-.4-.32-.39-.28,0-.55,0-.83,0Z"/><path d="m89.33,6.81c-.21-.06-.49-.1-.73-.21-.46-.21-.65-.67-.46-1.14.34-.84.95-1.44,1.77-1.79.5-.22,1.37.34,1.6.98.29.82-.33,1.81-1.3,2.04-.27.06-.54.08-.88.13Z"/></svg>